<svg width="18" height="18" viewBox="0 0 18 18" fill="none" xmlns="http://www.w3.org/2000/svg">
<path d="M11.2501 16.5V13.5C11.3544 12.5605 11.085 11.6176 10.5001 10.875C12.7501 10.875 15.0001 9.375 15.0001 6.75C15.0601 5.8125 14.7976 4.89 14.2501 4.125C14.4601 3.2625 14.4601 2.3625 14.2501 1.5C14.2501 1.5 13.5001 1.5 12.0001 2.625C10.0201 2.25 7.98009 2.25 6.00009 2.625C4.50009 1.5 3.75009 1.5 3.75009 1.5C3.52509 2.3625 3.52509 3.2625 3.75009 4.125C3.20399 4.88691 2.93894 5.81459 3.00009 6.75C3.00009 9.375 5.25009 10.875 7.50009 10.875C7.20759 11.2425 6.99009 11.6625 6.86259 12.1125C6.73509 12.5625 6.69759 13.035 6.75009 13.5V16.5" stroke="white" stroke-opacity="0.85" stroke-width="1.5" stroke-linecap="round" stroke-linejoin="round"/>
<path d="M6.75 13.5C3.3675 15 3 12 1.5 12" stroke="white" stroke-opacity="0.85" stroke-width="1.5" stroke-linecap="round" stroke-linejoin="round"/>
</svg>
