<svg width="147" height="18" viewBox="0 0 147 18" fill="none" xmlns="http://www.w3.org/2000/svg">
<path d="M-3.51369e-05 17.112V16.2L2.49597 15.84H2.97596L5.30397 16.2V17.112H-3.51369e-05ZM0.215965 1.944V1.032H3.11997V2.304H2.85597L0.215965 1.944ZM2.13596 17.112V1.056H3.14396L3.33596 8.28V17.112H2.13596ZM8.68797 17.112L2.54397 1.848H2.37597V1.032H4.39197L10.104 15.264H9.33597L9.50397 14.784L14.784 1.032H15.864V1.824H15.672L15.384 2.568L9.81597 17.112H8.68797ZM13.008 17.112V16.2L15.816 15.84H16.368L19.416 16.2V17.112H13.008ZM14.952 17.112C14.984 16.312 15.008 15.504 15.024 14.688C15.04 13.872 15.048 13.04 15.048 12.192C15.048 11.344 15.048 10.504 15.048 9.672V1.032H17.28C17.264 1.816 17.248 2.624 17.232 3.456C17.216 4.288 17.208 5.128 17.208 5.976C17.208 6.808 17.208 7.648 17.208 8.496V9.648C17.208 10.48 17.208 11.32 17.208 12.168C17.208 13 17.216 13.832 17.232 14.664C17.248 15.48 17.264 16.296 17.28 17.112H14.952ZM16.056 2.304V1.032H19.416V1.944L16.368 2.304H16.056ZM26.5451 17.424C25.6171 17.424 24.7371 17.208 23.9051 16.776C23.0731 16.328 22.3931 15.664 21.8651 14.784C21.3531 13.904 21.0971 12.808 21.0971 11.496C21.0971 10.184 21.3531 9.08 21.8651 8.184C22.3931 7.272 23.0731 6.592 23.9051 6.144C24.7371 5.68 25.6171 5.448 26.5451 5.448C27.4571 5.448 28.3291 5.68 29.1611 6.144C29.9931 6.592 30.6731 7.264 31.2011 8.16C31.7291 9.056 31.9931 10.168 31.9931 11.496C31.9931 12.792 31.7291 13.888 31.2011 14.784C30.6731 15.664 29.9931 16.328 29.1611 16.776C28.3291 17.208 27.4571 17.424 26.5451 17.424ZM26.5451 16.392C27.2171 16.392 27.7931 16.208 28.2731 15.84C28.7531 15.472 29.1211 14.928 29.3771 14.208C29.6331 13.472 29.7611 12.568 29.7611 11.496C29.7611 10.408 29.6331 9.496 29.3771 8.76C29.1211 8.008 28.7531 7.448 28.2731 7.08C27.7931 6.696 27.2171 6.504 26.5451 6.504C25.8571 6.504 25.2731 6.696 24.7931 7.08C24.3131 7.448 23.9451 8.008 23.6891 8.76C23.4491 9.496 23.3291 10.408 23.3291 11.496C23.3291 12.568 23.4491 13.472 23.6891 14.208C23.9451 14.928 24.3131 15.472 24.7931 15.84C25.2731 16.208 25.8571 16.392 26.5451 16.392ZM36.0528 6.96V5.76H40.2768V6.96H36.0528ZM37.7328 17.424C36.9008 17.424 36.2368 17.2 35.7408 16.752C35.2608 16.304 35.0208 15.624 35.0208 14.712C35.0208 14.392 35.0208 14.08 35.0208 13.776C35.0368 13.472 35.0448 13.088 35.0448 12.624V6.96H33.0768V5.976L36.0288 5.616L35.0448 6.384L35.8608 2.472H37.2048L37.0368 6.24V6.672V14.472C37.0368 15.08 37.1568 15.52 37.3968 15.792C37.6368 16.064 37.9568 16.2 38.3568 16.2C38.6448 16.2 38.9088 16.144 39.1488 16.032C39.4048 15.92 39.6848 15.76 39.9888 15.552L40.5168 16.128C40.3248 16.4 40.0848 16.64 39.7968 16.848C39.5088 17.04 39.1968 17.184 38.8608 17.28C38.5248 17.376 38.1488 17.424 37.7328 17.424ZM41.4352 17.112V16.296L44.0272 15.84H44.5552L46.9552 16.296V17.112H41.4352ZM43.1872 17.112C43.2032 16.744 43.2112 16.264 43.2112 15.672C43.2272 15.064 43.2352 14.44 43.2352 13.8C43.2512 13.144 43.2592 12.568 43.2592 12.072V10.944C43.2592 10.288 43.2512 9.736 43.2352 9.288C43.2352 8.84 43.2192 8.376 43.1872 7.896L41.2912 7.68V6.888L44.9872 5.448L45.3232 5.688L45.2512 8.928V12.072C45.2512 12.568 45.2512 13.144 45.2512 13.8C45.2672 14.44 45.2752 15.064 45.2752 15.672C45.2912 16.264 45.3072 16.744 45.3232 17.112H43.1872ZM44.1232 3.024C43.6912 3.024 43.3232 2.888 43.0192 2.616C42.7152 2.328 42.5632 1.96 42.5632 1.512C42.5632 1.08 42.7152 0.719998 43.0192 0.431998C43.3232 0.143998 43.6912 -1.90735e-06 44.1232 -1.90735e-06C44.5712 -1.90735e-06 44.9472 0.143998 45.2512 0.431998C45.5552 0.719998 45.7072 1.08 45.7072 1.512C45.7072 1.96 45.5552 2.328 45.2512 2.616C44.9472 2.888 44.5712 3.024 44.1232 3.024ZM54.1779 17.424C53.2499 17.424 52.3699 17.208 51.5379 16.776C50.7059 16.328 50.0259 15.664 49.4979 14.784C48.9859 13.904 48.7299 12.808 48.7299 11.496C48.7299 10.184 48.9859 9.08 49.4979 8.184C50.0259 7.272 50.7059 6.592 51.5379 6.144C52.3699 5.68 53.2499 5.448 54.1779 5.448C55.0899 5.448 55.9619 5.68 56.7939 6.144C57.6259 6.592 58.3059 7.264 58.8339 8.16C59.3619 9.056 59.6259 10.168 59.6259 11.496C59.6259 12.792 59.3619 13.888 58.8339 14.784C58.3059 15.664 57.6259 16.328 56.7939 16.776C55.9619 17.208 55.0899 17.424 54.1779 17.424ZM54.1779 16.392C54.8499 16.392 55.4259 16.208 55.9059 15.84C56.3859 15.472 56.7539 14.928 57.0099 14.208C57.2659 13.472 57.3939 12.568 57.3939 11.496C57.3939 10.408 57.2659 9.496 57.0099 8.76C56.7539 8.008 56.3859 7.448 55.9059 7.08C55.4259 6.696 54.8499 6.504 54.1779 6.504C53.4899 6.504 52.9059 6.696 52.4259 7.08C51.9459 7.448 51.5779 8.008 51.3219 8.76C51.0819 9.496 50.9619 10.408 50.9619 11.496C50.9619 12.568 51.0819 13.472 51.3219 14.208C51.5779 14.928 51.9459 15.472 52.4259 15.84C52.9059 16.208 53.4899 16.392 54.1779 16.392ZM61.6406 17.112V16.296L64.2326 15.84H64.7846L67.1606 16.296V17.112H61.6406ZM63.3926 17.112C63.4086 16.744 63.4166 16.264 63.4166 15.672C63.4326 15.064 63.4406 14.44 63.4406 13.8C63.4566 13.144 63.4646 12.568 63.4646 12.072V10.92C63.4646 10.472 63.4566 10.088 63.4406 9.768C63.4406 9.432 63.4326 9.12 63.4166 8.832C63.4166 8.528 63.4086 8.216 63.3926 7.896L61.5206 7.68V6.888L64.8566 5.448L65.2166 5.688L65.4566 8.424V8.472V12.072C65.4566 12.568 65.4566 13.144 65.4566 13.8C65.4726 14.44 65.4886 15.064 65.5046 15.672C65.5206 16.264 65.5366 16.744 65.5526 17.112H63.3926ZM68.9126 17.112V16.296L71.4806 15.84H72.0326L74.4086 16.296V17.112H68.9126ZM70.6406 17.112C70.6566 16.744 70.6646 16.264 70.6646 15.672C70.6806 15.08 70.6886 14.464 70.6886 13.824C70.7046 13.168 70.7126 12.584 70.7126 12.072V10.008C70.7126 8.904 70.5606 8.152 70.2566 7.752C69.9526 7.336 69.4486 7.128 68.7446 7.128C68.3606 7.128 67.9766 7.184 67.5926 7.296C67.2246 7.408 66.8486 7.592 66.4646 7.848C66.0966 8.088 65.6886 8.408 65.2406 8.808L64.9286 7.944H65.1206C65.5046 7.464 65.9446 7.04 66.4406 6.672C66.9526 6.304 67.4806 6.008 68.0246 5.784C68.5846 5.56 69.1286 5.448 69.6566 5.448C70.6806 5.448 71.4406 5.792 71.9366 6.48C72.4486 7.168 72.7046 8.288 72.7046 9.84V12.072C72.7046 12.584 72.7046 13.168 72.7046 13.824C72.7206 14.464 72.7286 15.08 72.7286 15.672C72.7446 16.264 72.7606 16.744 72.7766 17.112H70.6406ZM87.6033 17.28L81.6513 1.032H84.0273L88.7313 14.616H88.2513L88.3713 14.28L92.8353 1.032H94.0833L88.6113 17.28H87.6033ZM80.2833 1.944V1.032H86.7393V2.04L83.8353 2.304H83.2833L80.2833 1.944ZM90.2673 2.04V1.032H95.7153V1.944L93.1713 2.304H92.6913L90.2673 2.04ZM96.068 17.112V16.296L98.66 15.84H99.188L101.588 16.296V17.112H96.068ZM97.82 17.112C97.836 16.744 97.844 16.264 97.844 15.672C97.86 15.064 97.868 14.44 97.868 13.8C97.884 13.144 97.892 12.568 97.892 12.072V10.944C97.892 10.288 97.884 9.736 97.868 9.288C97.868 8.84 97.852 8.376 97.82 7.896L95.924 7.68V6.888L99.62 5.448L99.956 5.688L99.884 8.928V12.072C99.884 12.568 99.884 13.144 99.884 13.8C99.9 14.44 99.908 15.064 99.908 15.672C99.924 16.264 99.94 16.744 99.956 17.112H97.82ZM98.756 3.024C98.324 3.024 97.956 2.888 97.652 2.616C97.348 2.328 97.196 1.96 97.196 1.512C97.196 1.08 97.348 0.719998 97.652 0.431998C97.956 0.143998 98.324 -1.90735e-06 98.756 -1.90735e-06C99.204 -1.90735e-06 99.58 0.143998 99.884 0.431998C100.188 0.719998 100.34 1.08 100.34 1.512C100.34 1.96 100.188 2.328 99.884 2.616C99.58 2.888 99.204 3.024 98.756 3.024ZM107.082 17.424C106.41 17.424 105.794 17.344 105.234 17.184C104.69 17.04 104.122 16.816 103.53 16.512L103.458 13.848H104.682L105.33 16.728H104.37V15.552C104.77 15.84 105.194 16.056 105.642 16.2C106.09 16.344 106.586 16.416 107.13 16.416C107.722 16.416 108.218 16.336 108.618 16.176C109.018 16.016 109.314 15.792 109.506 15.504C109.698 15.216 109.794 14.896 109.794 14.544C109.794 14.016 109.602 13.6 109.218 13.296C108.85 12.976 108.29 12.688 107.538 12.432L106.482 12.048C105.922 11.824 105.418 11.568 104.97 11.28C104.538 10.992 104.202 10.648 103.962 10.248C103.722 9.848 103.602 9.368 103.602 8.808C103.602 8.216 103.754 7.672 104.058 7.176C104.378 6.664 104.842 6.248 105.45 5.928C106.074 5.608 106.834 5.448 107.73 5.448C108.37 5.448 108.954 5.536 109.482 5.712C110.01 5.872 110.53 6.112 111.042 6.432L110.946 8.904H109.794L109.266 6.408H110.154V7.392C109.77 7.088 109.37 6.864 108.954 6.72C108.554 6.576 108.138 6.504 107.706 6.504C106.97 6.504 106.41 6.656 106.026 6.96C105.642 7.264 105.45 7.664 105.45 8.16C105.45 8.704 105.618 9.12 105.954 9.408C106.306 9.68 106.874 9.96 107.658 10.248L108.402 10.512C109.17 10.8 109.794 11.12 110.274 11.472C110.77 11.824 111.122 12.208 111.33 12.624C111.554 13.024 111.666 13.488 111.666 14.016C111.666 14.624 111.49 15.184 111.138 15.696C110.802 16.208 110.298 16.624 109.626 16.944C108.954 17.264 108.106 17.424 107.082 17.424ZM113.459 17.112V16.296L116.051 15.84H116.579L118.979 16.296V17.112H113.459ZM115.211 17.112C115.227 16.744 115.235 16.264 115.235 15.672C115.251 15.064 115.259 14.44 115.259 13.8C115.275 13.144 115.283 12.568 115.283 12.072V10.944C115.283 10.288 115.275 9.736 115.259 9.288C115.259 8.84 115.243 8.376 115.211 7.896L113.315 7.68V6.888L117.011 5.448L117.347 5.688L117.275 8.928V12.072C117.275 12.568 117.275 13.144 117.275 13.8C117.291 14.44 117.299 15.064 117.299 15.672C117.315 16.264 117.331 16.744 117.347 17.112H115.211ZM116.147 3.024C115.715 3.024 115.347 2.888 115.043 2.616C114.739 2.328 114.587 1.96 114.587 1.512C114.587 1.08 114.739 0.719998 115.043 0.431998C115.347 0.143998 115.715 -1.90735e-06 116.147 -1.90735e-06C116.595 -1.90735e-06 116.971 0.143998 117.275 0.431998C117.579 0.719998 117.731 1.08 117.731 1.512C117.731 1.96 117.579 2.328 117.275 2.616C116.971 2.888 116.595 3.024 116.147 3.024ZM126.201 17.424C125.273 17.424 124.393 17.208 123.561 16.776C122.729 16.328 122.049 15.664 121.521 14.784C121.009 13.904 120.753 12.808 120.753 11.496C120.753 10.184 121.009 9.08 121.521 8.184C122.049 7.272 122.729 6.592 123.561 6.144C124.393 5.68 125.273 5.448 126.201 5.448C127.113 5.448 127.985 5.68 128.817 6.144C129.649 6.592 130.329 7.264 130.857 8.16C131.385 9.056 131.649 10.168 131.649 11.496C131.649 12.792 131.385 13.888 130.857 14.784C130.329 15.664 129.649 16.328 128.817 16.776C127.985 17.208 127.113 17.424 126.201 17.424ZM126.201 16.392C126.873 16.392 127.449 16.208 127.929 15.84C128.409 15.472 128.777 14.928 129.033 14.208C129.289 13.472 129.417 12.568 129.417 11.496C129.417 10.408 129.289 9.496 129.033 8.76C128.777 8.008 128.409 7.448 127.929 7.08C127.449 6.696 126.873 6.504 126.201 6.504C125.513 6.504 124.929 6.696 124.449 7.08C123.969 7.448 123.601 8.008 123.345 8.76C123.105 9.496 122.985 10.408 122.985 11.496C122.985 12.568 123.105 13.472 123.345 14.208C123.601 14.928 123.969 15.472 124.449 15.84C124.929 16.208 125.513 16.392 126.201 16.392ZM133.664 17.112V16.296L136.256 15.84H136.808L139.184 16.296V17.112H133.664ZM135.416 17.112C135.432 16.744 135.44 16.264 135.44 15.672C135.456 15.064 135.464 14.44 135.464 13.8C135.48 13.144 135.488 12.568 135.488 12.072V10.92C135.488 10.472 135.48 10.088 135.464 9.768C135.464 9.432 135.456 9.12 135.44 8.832C135.44 8.528 135.432 8.216 135.416 7.896L133.544 7.68V6.888L136.88 5.448L137.24 5.688L137.48 8.424V8.472V12.072C137.48 12.568 137.48 13.144 137.48 13.8C137.496 14.44 137.512 15.064 137.528 15.672C137.544 16.264 137.56 16.744 137.576 17.112H135.416ZM140.936 17.112V16.296L143.504 15.84H144.056L146.432 16.296V17.112H140.936ZM142.664 17.112C142.68 16.744 142.688 16.264 142.688 15.672C142.704 15.08 142.712 14.464 142.712 13.824C142.728 13.168 142.736 12.584 142.736 12.072V10.008C142.736 8.904 142.584 8.152 142.28 7.752C141.976 7.336 141.472 7.128 140.768 7.128C140.384 7.128 140 7.184 139.616 7.296C139.248 7.408 138.872 7.592 138.488 7.848C138.12 8.088 137.712 8.408 137.264 8.808L136.952 7.944H137.144C137.528 7.464 137.968 7.04 138.464 6.672C138.976 6.304 139.504 6.008 140.048 5.784C140.608 5.56 141.152 5.448 141.68 5.448C142.704 5.448 143.464 5.792 143.96 6.48C144.472 7.168 144.728 8.288 144.728 9.84V12.072C144.728 12.584 144.728 13.168 144.728 13.824C144.744 14.464 144.752 15.08 144.752 15.672C144.768 16.264 144.784 16.744 144.8 17.112H142.664Z" fill="url(#paint0_linear_132_458)"/>
<defs>
<linearGradient id="paint0_linear_132_458" x1="73.6145" y1="-6.888" x2="73.5134" y2="24.112" gradientUnits="userSpaceOnUse">
<stop stop-color="#67E8F9"/>
<stop offset="1" stop-color="#0891B2"/>
</linearGradient>
</defs>
</svg>
